<?xml version="1.0" standalone="no"?>
<!DOCTYPE svg PUBLIC "-//W3C//DTD SVG 20010904//EN"
 "http://www.w3.org/TR/2001/REC-SVG-20010904/DTD/svg10.dtd">
<svg version="1.0" xmlns="http://www.w3.org/2000/svg"
 width="60.000000pt" height="60.000000pt" viewBox="0 0 60.000000 60.000000"
 preserveAspectRatio="xMidYMid meet">

<g transform="translate(0.000000,60.000000) scale(0.100000,-0.100000)"
fill="#000000" stroke="none">
<path d="M205 582 c-96 -33 -158 -97 -191 -194 -34 -103 5 -241 88 -313 201
-172 515 -18 495 243 -15 200 -206 328 -392 264z m217 -32 c124 -64 183 -199
144 -332 -16 -56 -46 -98 -46 -64 0 20 -63 91 -100 113 l-28 16 19 31 c37 61
13 148 -50 181 -116 59 -239 -72 -171 -182 l20 -33 -28 -14 c-34 -18 -76 -62
-96 -100 l-14 -28 -23 43 c-33 63 -34 176 -1 239 40 76 96 123 182 151 43 14
146 3 192 -21z m-66 -79 c85 -52 60 -182 -37 -197 -47 -8 -85 9 -109 48 -24
39 -25 69 -5 108 29 57 96 75 151 41z m-65 -219 c20 -2 46 1 58 7 27 15 65 -4
113 -57 56 -62 58 -80 12 -119 -93 -81 -255 -81 -348 0 -32 27 -37 37 -31 56
17 53 115 138 145 124 8 -3 31 -8 51 -11z"/>
</g>
</svg>
